<svg width="24" height="25" viewBox="0 0 24 25" fill="none" xmlns="http://www.w3.org/2000/svg">
<g id="Bounds">
<circle id="Ellipse 2" cx="12" cy="12.5" r="11" fill="white"/>
<path id="Title" d="M12.0057 24.5C18.5861 24.5 24 19.0861 24 12.5057C24 5.91387 18.5861 0.5 11.9943 0.5C5.40255 0.5 0 5.91387 0 12.5057C0 19.0861 5.41387 24.5 12.0057 24.5ZM10.7485 18.2027C10.2388 18.2027 9.81973 17.9648 9.46862 17.5231L6.81831 14.3745C6.54648 14.0573 6.44455 13.7629 6.44455 13.4231C6.44455 12.7095 7.02218 12.1432 7.73572 12.1432C8.14346 12.1432 8.46059 12.3131 8.7664 12.6756L10.7258 15.054L15.109 8.09981C15.4148 7.61279 15.7886 7.36361 16.2416 7.36361C16.9438 7.36361 17.5781 7.88462 17.5781 8.59816C17.5781 8.88131 17.4648 9.19844 17.261 9.49292L11.9943 17.5005C11.6999 17.9422 11.2468 18.2027 10.7485 18.2027Z" fill="#32D74B"/>
</g>
</svg>
