<svg width="27" height="27" viewBox="0 0 27 27" fill="none" xmlns="http://www.w3.org/2000/svg">
<g clip-path="url(#clip0_33009_4003)">
<path d="M13.3096 25.1309C19.5508 25.1309 24.6855 19.9961 24.6855 13.7549C24.6855 7.50293 19.5508 2.36816 13.2988 2.36816C7.04688 2.36816 1.92285 7.50293 1.92285 13.7549C1.92285 19.9961 7.05762 25.1309 13.3096 25.1309ZM12.1172 19.1582C11.6338 19.1582 11.2363 18.9326 10.9033 18.5137L8.38965 15.5273C8.13184 15.2266 8.03516 14.9473 8.03516 14.625C8.03516 13.9482 8.58301 13.4111 9.25977 13.4111C9.64648 13.4111 9.94727 13.5723 10.2373 13.916L12.0957 16.1719L16.2529 9.57617C16.543 9.11426 16.8975 8.87793 17.3271 8.87793C17.9932 8.87793 18.5947 9.37207 18.5947 10.0488C18.5947 10.3174 18.4873 10.6182 18.2939 10.8975L13.2988 18.4922C13.0195 18.9111 12.5898 19.1582 12.1172 19.1582Z" fill="white"/>
</g>
<defs>
<clipPath id="clip0_33009_4003">
<rect width="27" height="26" fill="white" transform="translate(0 0.5)"/>
</clipPath>
</defs>
</svg>
