<svg width="24" height="24" viewBox="0 0 24 24" fill="none" xmlns="http://www.w3.org/2000/svg">
<path d="M12.3096 23.1309C18.5508 23.1309 23.6855 17.9961 23.6855 11.7549C23.6855 5.50293 18.5508 0.368164 12.2988 0.368164C6.04688 0.368164 0.922852 5.50293 0.922852 11.7549C0.922852 17.9961 6.05762 23.1309 12.3096 23.1309ZM12.2988 8.30664C11.375 8.30664 10.6016 7.5332 10.6016 6.60938C10.6016 5.65332 11.375 4.90137 12.2988 4.90137C13.2227 4.90137 13.9854 5.65332 13.9854 6.60938C13.9854 7.5332 13.2227 8.30664 12.2988 8.30664ZM10.2578 17.8027C9.65625 17.8027 9.18359 17.3838 9.18359 16.75C9.18359 16.1807 9.65625 15.7188 10.2578 15.7188H11.4932V11.8945H10.4727C9.86035 11.8945 9.39844 11.4648 9.39844 10.8525C9.39844 10.2725 9.86035 9.82129 10.4727 9.82129H12.6748C13.4482 9.82129 13.8457 10.3477 13.8457 11.1641V15.7188H14.8232C15.4248 15.7188 15.8975 16.1807 15.8975 16.75C15.8975 17.3838 15.4248 17.8027 14.8232 17.8027H10.2578Z" fill="white"/>
</svg>
