<svg width="17" height="21" viewBox="0 0 17 21" fill="none" xmlns="http://www.w3.org/2000/svg">
<g id="Group 3">
<path id="&#244;&#128;&#132;&#169;" d="M8.87111 3.24741C8.2581 3.24741 7.84943 3.7075 7.84943 4.38669V12.3397L7.91073 13.9245L6.63024 12.3324L5.0773 10.6673C4.8934 10.4701 4.65501 10.3241 4.34851 10.3241C3.7968 10.3241 3.37451 10.755 3.37451 11.383C3.37451 11.6679 3.48349 11.9381 3.69464 12.1718L8.11507 16.9188C8.30578 17.1233 8.59185 17.2474 8.87111 17.2474C9.15036 17.2474 9.43643 17.1233 9.62714 16.9188L14.0544 12.1718C14.2655 11.9381 14.3745 11.6679 14.3745 11.383C14.3745 10.755 13.9522 10.3241 13.4005 10.3241C13.094 10.3241 12.8556 10.4701 12.6649 10.6673L11.112 12.3324L9.83148 13.9245L9.89959 12.3397V4.38669C9.89959 3.7075 9.48411 3.24741 8.87111 3.24741Z" fill="#8E8E93"/>
</g>
</svg>
