<svg width="26" height="27" viewBox="0 0 26 27" fill="none" xmlns="http://www.w3.org/2000/svg">
<g clip-path="url(#clip0_33009_4501)">
<path d="M7.58398 24.8193H17.6816C19.4111 24.8193 20.3564 23.9492 20.4316 22.2627L21.1084 7.04102H22.3652C23.085 7.04102 23.6113 6.52539 23.6113 5.81641C23.6113 5.11816 23.085 4.61328 22.3652 4.61328H17.9395V3.06641C17.9395 1.18652 16.7686 0.123047 14.6738 0.123047H10.5811C8.48633 0.123047 7.30469 1.18652 7.30469 3.06641V4.61328H2.88965C2.18066 4.61328 1.64355 5.11816 1.64355 5.81641C1.64355 6.53613 2.18066 7.04102 2.88965 7.04102H4.15723L4.83398 22.2627C4.89844 23.9492 5.85449 24.8193 7.58398 24.8193ZM10.0654 3.1416C10.0654 2.75488 10.3232 2.5293 10.7637 2.5293H14.4805C14.9316 2.5293 15.1895 2.75488 15.1895 3.1416V4.61328H10.0654V3.1416ZM9.10938 21.124C8.60449 21.124 8.25 20.7803 8.23926 20.2754L7.91699 9.37207C7.90625 8.85645 8.23926 8.5127 8.76562 8.5127C9.29199 8.5127 9.64648 8.85645 9.65723 9.36133L9.97949 20.2539C9.99023 20.7695 9.65723 21.124 9.10938 21.124ZM12.6328 21.124C12.1064 21.124 11.752 20.791 11.752 20.2754V9.36133C11.752 8.85645 12.1064 8.5127 12.6328 8.5127C13.1484 8.5127 13.5029 8.85645 13.5029 9.36133V20.2754C13.5029 20.791 13.1484 21.124 12.6328 21.124ZM16.1455 21.124C15.6084 21.124 15.2646 20.7695 15.2754 20.2646L15.5977 9.36133C15.6084 8.85645 15.9629 8.52344 16.4893 8.52344C17.0156 8.52344 17.3594 8.85645 17.3379 9.37207L17.0264 20.2754C17.0156 20.7803 16.6504 21.124 16.1455 21.124Z" fill="white"/>
</g>
<defs>
<clipPath id="clip0_33009_4501">
<rect width="26" height="26" fill="white" transform="translate(0 0.5)"/>
</clipPath>
</defs>
</svg>
